  <svg xmlns="http://www.w3.org/2000/svg" viewBox="0 0 1440 320" class="position-absolute"><path fill="#7FA2BB" fill-opacity="1" d="M0,128L24,138.7C48,149,96,171,144,170.7C192,171,240,149,288,160C336,171,384,213,432,192C480,171,528,85,576,74.7C624,64,672,128,720,149.3C768,171,816,149,864,154.7C912,160,960,192,1008,192C1056,192,1104,160,1152,149.3C1200,139,1248,149,1296,154.7C1344,160,1392,160,1416,160L1440,160L1440,320L1416,320C1392,320,1344,320,1296,320C1248,320,1200,320,1152,320C1104,320,1056,320,1008,320C960,320,912,320,864,320C816,320,768,320,720,320C672,320,624,320,576,320C528,320,480,320,432,320C384,320,336,320,288,320C240,320,192,320,144,320C96,320,48,320,24,320L0,320Z"></path></svg>
